<?xml version="1.0" encoding="UTF-8"?>
<svg id="Capa_1" data-name="Capa 1" xmlns="http://www.w3.org/2000/svg" viewBox="0 0 242.23 240.74">
  <defs>
    <style>
      .cls-1 {
        fill: #fff;
      }
    </style>
  </defs>
  <path class="cls-1" d="m242.23,119.62c0,66.89-54.23,121.12-121.12,121.12S0,186.51,0,119.62c0-6.5.51-12.89,1.51-19.11,9.16,57.81,59.22,102,119.6,102s110.45-44.19,119.61-102c1,6.22,1.51,12.61,1.51,19.11Z"/>
  <path class="cls-1" d="m121.11,59.18c2.05,49.21,2.07,99.11,0,148.32-2.07-49.21-2.05-99.11,0-148.32h0Z"/>
  <path class="cls-1" d="m38.7,129.84c1.32,4.21,4.22,7.8,7.55,10.61,7.62,6.44,17.68,8.94,27.4,10.11,7.71.55,15.64.6,22.98,3.39,12.75,4.22,22.69,15.86,24.48,29.22-2.4-13.13-12.17-24.23-24.78-28.36-7.29-2.7-15.11-2.68-22.78-3.33-9.85-1.21-20.03-3.94-27.62-10.67-3.26-2.94-6.11-6.68-7.23-10.98h0Z"/>
  <path class="cls-1" d="m47.04,161.51c6.29-9,18.53-11.08,28.82-10.52,1.51.17,3.02.31,4.51.52-1.52.02-3.02-.02-4.53-.03-10.2.23-21.67,2.04-28.81,10.03h0Z"/>
  <path class="cls-1" d="m54.7,85.18c4.64,14.64,13.88,29.12,28.24,35.65,3.56,1.56,7.35,2.86,10.85,4.6,10.57,5.19,20.33,12.56,27.32,22.09-4.92-6.11-11-11.21-17.51-15.52-6.6-4.47-13.72-7.36-21.08-10.25-14.55-6.72-23.88-21.49-27.82-36.56h0Z"/>
  <path class="cls-1" d="m49.04,116.34c13.24-2.35,26.89,1.42,38.99,6.71,1.72.83,3.43,1.68,5.12,2.56-1.79-.67-3.53-1.43-5.31-2.11-12.33-4.62-25.52-8.24-38.8-7.16h0Z"/>
  <path class="cls-1" d="m68.37,70.51c7.5,3.72,14.38,8.84,20.05,15.03,1.88,2.06,3.5,4.3,5.62,6.11,7.16,6.65,16.83,9.78,24.66,15.5,1.06.88,2.16,1.95,2.41,3.36-.35-1.38-1.49-2.33-2.57-3.15-8.22-5.28-17.8-8.27-25.17-14.97-2.12-1.84-3.78-4.17-5.63-6.24-5.58-6.18-12.19-11.43-19.38-15.64h0Z"/>
  <path class="cls-1" d="m105.37,59.18c-6.39,4.71-5.99,26.22-5.04,33.82.26,1.64.58,3.34,1.55,4.72-.57-.6-.99-1.39-1.28-2.18-2.8-7.66-3-31.82,4.77-36.36h0Z"/>
  <path class="cls-1" d="m79.91,61.18c-.14,4.45-.69,8.81-.58,13.23.1,1.42.08,2.98,1.04,4.13-3.52-2.99-1.66-13.32-.46-17.36h0Z"/>
  <path class="cls-1" d="m203.53,129.84c-1.12,4.3-3.97,8.03-7.23,10.98-7.58,6.72-17.76,9.46-27.62,10.67-7.67.65-15.49.63-22.78,3.33-12.61,4.13-22.38,15.24-24.78,28.36,1.79-13.36,11.72-25,24.48-29.22,7.35-2.79,15.27-2.84,22.98-3.39,9.72-1.17,19.78-3.67,27.4-10.11,3.34-2.81,6.23-6.4,7.55-10.61h0Z"/>
  <path class="cls-1" d="m195.19,161.51c-7.13-7.99-18.61-9.79-28.81-10.03-1.5,0-3.01.05-4.53.03,1.5-.2,3-.34,4.51-.52,10.29-.56,22.53,1.52,28.82,10.52h0Z"/>
  <path class="cls-1" d="m187.53,85.18c-3.94,15.07-13.27,29.84-27.82,36.56-7.36,2.89-14.48,5.78-21.08,10.25-6.52,4.31-12.6,9.41-17.51,15.52,7-9.52,16.76-16.89,27.32-22.09,3.51-1.74,7.3-3.04,10.85-4.6,14.36-6.53,23.6-21.01,28.24-35.65h0Z"/>
  <path class="cls-1" d="m193.19,116.34c-13.28-1.08-26.47,2.55-38.8,7.16-1.77.68-3.52,1.43-5.31,2.11,1.69-.88,3.4-1.72,5.12-2.56,12.1-5.3,25.75-9.06,38.99-6.71h0Z"/>
  <path class="cls-1" d="m173.86,70.51c-7.19,4.21-13.8,9.45-19.38,15.64-1.85,2.08-3.51,4.4-5.63,6.25-7.36,6.7-16.94,9.69-25.17,14.97-1.08.82-2.22,1.77-2.57,3.15.25-1.41,1.35-2.48,2.41-3.36,7.83-5.72,17.5-8.85,24.66-15.5,2.12-1.81,3.74-4.05,5.62-6.11,5.67-6.18,12.55-11.31,20.05-15.03h0Z"/>
  <path class="cls-1" d="m136.86,59.18c7.77,4.57,7.57,28.62,4.77,36.36-.29.79-.72,1.58-1.28,2.18.97-1.38,1.29-3.08,1.55-4.72.95-7.6,1.37-29.07-5.04-33.82h0Z"/>
  <path class="cls-1" d="m162.32,61.18c1.2,4.02,3.07,14.37-.46,17.36.95-1.16.93-2.71,1.04-4.13.12-4.42-.44-8.78-.58-13.23h0Z"/>
  <path class="cls-1" d="m81.19,30.26c-.84.22-1.71.34-2.62.34-5.63,0-10.2-4.57-10.2-10.2s4.57-10.2,10.2-10.2c.91,0,1.79.12,2.62.34-4.37,1.16-7.58,5.13-7.58,9.86s3.21,8.7,7.58,9.86Z"/>
  <path class="cls-1" d="m42.19,56.04c-.84.22-1.71.34-2.62.34-5.63,0-10.2-4.57-10.2-10.2s4.57-10.2,10.2-10.2c.91,0,1.79.12,2.62.34-4.37,1.16-7.58,5.13-7.58,9.86s3.21,8.7,7.58,9.86Z"/>
  <path class="cls-1" d="m162.18,10.54c.84-.22,1.71-.34,2.62-.34,5.63,0,10.2,4.57,10.2,10.2s-4.57,10.2-10.2,10.2c-.91,0-1.79-.12-2.62-.34,4.37-1.16,7.58-5.13,7.58-9.86s-3.21-8.7-7.58-9.86Z"/>
  <path class="cls-1" d="m200.06,36.32c.84-.22,1.71-.34,2.62-.34,5.63,0,10.2,4.57,10.2,10.2s-4.57,10.2-10.2,10.2c-.91,0-1.79-.12-2.62-.34,4.37-1.16,7.58-5.13,7.58-9.86s-3.21-8.7-7.58-9.86Z"/>
  <circle class="cls-1" cx="121.12" cy="10.2" r="10.2"/>
</svg>